<?xml version="1.0" encoding="utf-8"?>
<!-- Generator: Adobe Illustrator 18.0.0, SVG Export Plug-In . SVG Version: 6.00 Build 0)  -->
<!DOCTYPE svg PUBLIC "-//W3C//DTD SVG 1.1//EN" "http://www.w3.org/Graphics/SVG/1.1/DTD/svg11.dtd">
<svg version="1.1" id="Capa_1" xmlns="http://www.w3.org/2000/svg" xmlns:xlink="http://www.w3.org/1999/xlink" x="0px" y="0px"
	 viewBox="0 0 512 512" enable-background="new 0 0 512 512" xml:space="preserve">
<path fill="#FFFFFF" d="M256,349.9c-14.1,0-25.6,11.5-25.6,25.6c0,14.1,11.5,25.6,25.6,25.6c14.1,0,25.6-11.5,25.6-25.6
	C281.6,361.4,270.1,349.9,256,349.9z M256,384c-4.7,0-8.5-3.8-8.5-8.5c0-4.7,3.8-8.5,8.5-8.5c4.7,0,8.5,3.8,8.5,8.5
	C264.5,380.2,260.7,384,256,384z"/>
<path fill="#FFFFFF" d="M256,315.8c-22,0-42.2,12.1-52.6,31.4c-2.2,4.1-0.7,9.3,3.5,11.6c4.1,2.2,9.3,0.7,11.6-3.5
	c11.2-20.8,37.1-28.5,57.8-17.4c7.4,4,13.4,10,17.4,17.4c2.2,4.1,7.4,5.7,11.6,3.5c4.1-2.2,5.7-7.4,3.5-11.6
	C298.2,327.8,278,315.8,256,315.8L256,315.8z"/>
<path fill="#FFFFFF" d="M256,247.5c-40.6,0.1-78.7,19.3-102.9,51.9c-2.8,3.8-2.1,9.1,1.7,11.9c3.8,2.8,9.1,2.1,11.9-1.7
	c0,0,0.1-0.1,0.1-0.1c36.4-49.3,105.9-59.7,155.1-23.3c8.9,6.6,16.7,14.4,23.3,23.3c2.8,3.8,8.2,4.5,11.9,1.7
	c3.7-2.8,4.5-8.1,1.8-11.8C334.7,266.8,296.6,247.6,256,247.5L256,247.5z"/>
<path fill="#FFFFFF" d="M256,281.6c-31.2,0-60.3,15.5-77.8,41.3c-2.7,3.9-1.7,9.2,2.2,11.9c3.9,2.7,9.2,1.7,11.9-2.2
	c0,0,0-0.1,0.1-0.1c23.8-35.2,71.5-44.4,106.7-20.6c8.1,5.5,15.1,12.5,20.6,20.6c2.6,3.9,7.9,5,11.8,2.4c3.9-2.6,5-7.9,2.4-11.8
	c0,0,0-0.1-0.1-0.1C316.3,297.1,287.2,281.6,256,281.6z"/>
<path fill="#FFFFFF" d="M477.9,281.6c-15.6,0-29.1,10.5-33.1,25.6h-43.7v-42.7h17.1v-17.1h-17.1V239c0-14.1-11.5-25.6-25.6-25.6
	h-42.7v-64.7l59.5-59.5c16.3,9.6,37.2,4.2,46.8-12.1s4.2-37.2-12.1-46.8s-37.2-4.2-46.8,12.1c-6.3,10.7-6.3,24,0,34.7l-62,62
	c-1.6,1.6-2.5,3.8-2.5,6v68.3h-17.1v-34.1h-17.1v34.1h-17.1V92.8c18.3-4.7,29.2-23.3,24.5-41.6C284.3,33,265.7,22,247.5,26.7
	S218.2,50.1,223,68.3c3.1,12,12.5,21.4,24.5,24.5v120.5h-17.1v-34.1h-17.1v34.1h-17.1v-68.3c0-2.3-0.9-4.4-2.5-6l-62-62
	c9.6-16.3,4.2-37.2-12.1-46.8s-37.2-4.2-46.8,12.1S68.7,79.6,85,89.2c10.7,6.3,24,6.3,34.7,0l59.5,59.5v64.7h-42.7
	c-14.1,0-25.6,11.5-25.6,25.6v8.5H93.9v17.1h17.1v42.7H67.2C62.5,289,43.9,278,25.6,282.7s-29.2,23.3-24.5,41.6
	c4.7,18.3,23.3,29.2,41.6,24.5c12-3.1,21.4-12.5,24.5-24.5h43.7V367H76.8V384h34.1v25.6c0,14.1,11.5,25.6,25.6,25.6h85.2
	c-0.7,7.7-5.3,14.5-12.2,18c-2.9,1.4-4.7,4.4-4.7,7.6v17.1c0,4.7,3.8,8.5,8.5,8.5h85.3c4.7,0,8.5-3.8,8.5-8.5v-17.1
	c0-3.2-1.8-6.2-4.7-7.6c-6.9-3.4-11.6-10.3-12.2-18h85.2c14.1,0,25.6-11.5,25.6-25.6V384h34.1V367h-34.1v-42.7h43.7
	c4.7,18.3,23.3,29.2,41.6,24.5c18.3-4.7,29.2-23.3,24.5-41.6C507,292.2,493.4,281.6,477.9,281.6L477.9,281.6z M409.6,42.7
	c9.4,0,17.1,7.6,17.1,17.1s-7.6,17.1-17.1,17.1s-17.1-7.6-17.1-17.1C392.5,50.4,400.2,42.7,409.6,42.7z M102.4,76.8
	c-9.4,0-17.1-7.6-17.1-17.1s7.6-17.1,17.1-17.1s17.1,7.6,17.1,17.1C119.5,69.2,111.8,76.8,102.4,76.8z M34.1,332.8
	c-9.4,0-17.1-7.6-17.1-17.1s7.6-17.1,17.1-17.1s17.1,7.6,17.1,17.1C51.2,325.2,43.6,332.8,34.1,332.8z M238.9,59.8
	c0-9.4,7.6-17.1,17.1-17.1s17.1,7.6,17.1,17.1s-7.6,17.1-17.1,17.1C246.6,76.8,238.9,69.2,238.9,59.8z M290.1,469.4h-68.3v-3.7
	c10.1-6.9,16.4-18.2,17-30.5h34.3c0.6,12.3,6.9,23.5,17,30.5V469.4z M384,384h-85.3c-4.7,0-8.5,3.8-8.5,8.5c0,4.7,3.8,8.5,8.5,8.5
	H384v8.5c0,4.7-3.8,8.5-8.5,8.5H136.5c-4.7,0-8.5-3.8-8.5-8.5v-8.5h85.3c4.7,0,8.5-3.8,8.5-8.5c0-4.7-3.8-8.5-8.5-8.5H128V239
	c0-4.7,3.8-8.5,8.5-8.5h238.9c4.7,0,8.5,3.8,8.5,8.5V384z M477.9,332.8c-9.4,0-17.1-7.6-17.1-17.1s7.6-17.1,17.1-17.1
	s17.1,7.6,17.1,17.1C494.9,325.2,487.3,332.8,477.9,332.8z"/>
<path fill="#FFFFFF" d="M213.3,145.1h17.1v17.1h-17.1V145.1z"/>
<path fill="#FFFFFF" d="M281.6,145.1h17.1v17.1h-17.1V145.1z"/>
<path fill="#FFFFFF" d="M59.7,247.5h17.1v17.1H59.7L59.7,247.5z"/>
<path fill="#FFFFFF" d="M42.7,367h17.1V384H42.7V367z"/>
<path fill="#FFFFFF" d="M435.2,247.5h17.1v17.1h-17.1V247.5z"/>
<path fill="#FFFFFF" d="M452.3,367h17.1V384h-17.1V367z"/>
</svg>
