<?xml version="1.0" encoding="utf-8"?>
<!-- Generator: Adobe Illustrator 18.0.0, SVG Export Plug-In . SVG Version: 6.00 Build 0)  -->
<!DOCTYPE svg PUBLIC "-//W3C//DTD SVG 1.1//EN" "http://www.w3.org/Graphics/SVG/1.1/DTD/svg11.dtd">
<svg version="1.1" xmlns="http://www.w3.org/2000/svg" xmlns:xlink="http://www.w3.org/1999/xlink" x="0px" y="0px"
	 viewBox="0 0 444.406 144.015" enable-background="new 0 0 444.406 144.015" xml:space="preserve">
<g id="HOPS" display="none">
</g>
<g id="Layer_3">
	<rect x="-304.062" y="-454.258" display="none" fill="#FFFFFF" width="1052.53" height="1052.53"/>
	<g>
		<g>
			<linearGradient id="SVGID_1_" gradientUnits="userSpaceOnUse" x1="44.3627" y1="-55.8635" x2="141.3181" y2="242.5347">
				<stop  offset="0.3552" style="stop-color:#20DB93"/>
				<stop  offset="0.7253" style="stop-color:#2893F0"/>
			</linearGradient>
			<polygon fill="url(#SVGID_1_)" points="70.273,17.227 96.724,32.495 96.734,32.495 111.645,23.881 70.273,0 28.902,23.881 
				43.812,32.505 			"/>
			<linearGradient id="SVGID_2_" gradientUnits="userSpaceOnUse" x1="-17.3056" y1="-58.7507" x2="73.9155" y2="221.9989">
				<stop  offset="0.3552" style="stop-color:#20DB93"/>
				<stop  offset="0.7253" style="stop-color:#2893F0"/>
			</linearGradient>
			<polygon fill="url(#SVGID_2_)" points="28.797,58.282 13.876,49.669 13.876,97.684 55.353,121.628 55.353,104.402 28.797,89.071 
							"/>
			<linearGradient id="SVGID_3_" gradientUnits="userSpaceOnUse" x1="72.9982" y1="-15.7116" x2="136.0896" y2="178.4639">
				<stop  offset="0.3552" style="stop-color:#20DB93"/>
				<stop  offset="0.7253" style="stop-color:#2893F0"/>
			</linearGradient>
			<polygon fill="url(#SVGID_3_)" points="111.75,89.071 85.194,104.402 85.194,121.628 126.67,97.684 126.67,49.669 111.75,58.282 
							"/>
			<linearGradient id="SVGID_4_" gradientUnits="userSpaceOnUse" x1="37.1396" y1="-69.5892" x2="126.1811" y2="204.4522">
				<stop  offset="0.3552" style="stop-color:#20DB93"/>
				<stop  offset="0.7253" style="stop-color:#2893F0"/>
			</linearGradient>
			<path fill="url(#SVGID_4_)" d="M139.527,27.198c0-0.021-0.011-0.032-0.011-0.042c-0.232-0.569-0.505-1.127-0.821-1.664
				c-0.305-0.526-0.642-1.021-1.011-1.495c0-0.021-0.021-0.042-0.042-0.063c-1.253-1.632-2.832-2.906-4.58-3.791
				c-4.022-2.074-8.971-2.116-13.173,0.316c-2.243,1.295-3.98,3.117-5.138,5.223c-1.032,1.853-1.622,3.917-1.727,6.023l-8.834,5.096
				v0.011L85.194,47.773l-7.455,4.307h-0.011l-7.455,4.307l-7.455-4.307v0v0c-0.011,0-0.011,0-0.011,0l-7.455-4.307L36.357,36.812
				v-0.011l-8.835-5.096c-0.105-2.106-0.695-4.17-1.727-6.023c-1.158-2.106-2.896-3.928-5.138-5.223
				c-4.201-2.432-9.15-2.39-13.173-0.316c-1.78,0.895-3.37,2.201-4.623,3.854c-0.369,0.474-0.705,0.969-1.011,1.495
				c-0.316,0.537-0.59,1.095-0.821,1.664c0,0.011-0.011,0.021-0.011,0.032c-0.779,1.895-1.106,3.906-1,5.865c0,0,0,0,0,0.011
				c0.221,4.507,2.664,8.824,6.865,11.246c2.211,1.274,4.622,1.864,6.992,1.843c2.159-0.021,4.265-0.537,6.181-1.527h0.011
				l8.729,5.044l19.101,11.025L55.353,65l7.466,4.307v8.613v0.011v8.603v22.176v9.951c-1.843,1.19-3.38,2.801-4.475,4.696
				c-1.179,2.022-1.843,4.38-1.843,6.886c0,4.854,2.517,9.129,6.318,11.572c1.653,1.074,3.559,1.801,5.612,2.074
				c0.6,0.084,1.221,0.126,1.843,0.126c0.621,0,1.242-0.042,1.843-0.126c2.053-0.274,3.959-1,5.612-2.074
				c3.801-2.443,6.318-6.718,6.318-11.572c0-2.506-0.663-4.865-1.843-6.886c-1.095-1.895-2.632-3.506-4.475-4.696v-9.951V86.533
				V77.92v-8.613L85.194,65l7.455-4.307l19.101-11.025l8.729-5.044h0.011c1.916,0.99,4.022,1.506,6.181,1.527
				c2.369,0.021,4.78-0.569,6.992-1.843c4.201-2.422,6.644-6.739,6.865-11.246c0-0.011,0-0.011,0-0.011
				C140.622,31.094,140.306,29.094,139.527,27.198z"/>
		</g>
		<g>
			<path fill="#06021A" d="M216.781,84.459l-0.153,7.715h-43.462V34.887h41.934l0.153,7.791H181.95v16.346h28.567v6.875H181.95
				v18.561H216.781z"/>
			<path fill="#06021A" d="M240.231,34.887l19.86,40.941l2.597,5.576h0.229l2.521-5.576l19.935-40.941h9.93v57.287h-8.021V53.983
				l0.153-6.187l-0.229-0.076l-2.596,5.652l-18.867,38.803h-6.263l-18.714-38.497l-2.597-5.653l-0.153,0.076l0.077,6.187v37.886
				h-7.867V34.887H240.231z"/>
			<path fill="#06021A" d="M344.648,67.12l17.568,25.054h-10.694l-14.971-23.373h-14.436v23.373h-8.861V34.887h23.602
				c14.208,0,20.929,5.805,20.929,16.652C357.785,60.093,353.202,65.822,344.648,67.12z M336.704,42.144h-14.589v20.012h14.131
				c8.631,0,12.374-3.056,12.374-10.235C348.62,45.122,345.107,42.144,336.704,42.144z"/>
			<path fill="#06021A" d="M374.286,34.887h9.013v57.287h-9.013V34.887z"/>
			<path fill="#06021A" d="M424.166,42.907v49.267h-8.937V42.907h-20.242l0.229-8.02h49.038l0.152,8.02H424.166z"/>
		</g>
	</g>
</g>
</svg>
