<?xml version="1.0" encoding="utf-8"?>
<!-- Generator: Adobe Illustrator 18.0.0, SVG Export Plug-In . SVG Version: 6.00 Build 0)  -->
<!DOCTYPE svg PUBLIC "-//W3C//DTD SVG 1.1//EN" "http://www.w3.org/Graphics/SVG/1.1/DTD/svg11.dtd">
<svg version="1.1" id="Layer_1" xmlns="http://www.w3.org/2000/svg" xmlns:xlink="http://www.w3.org/1999/xlink" x="0px" y="0px"
	 viewBox="0 0 143.7 146" enable-background="new 0 0 143.7 146" xml:space="preserve">
<g>
	<polygon fill="#FFFFFF" points="71.7,19.2 98.1,34.5 98.1,34.5 113,25.9 71.7,2 30.3,25.9 45.2,34.5 	"/>
	<polygon fill="#FFFFFF" points="30.2,60.3 15.3,51.7 15.3,99.7 56.7,123.6 56.7,106.4 30.2,91.1 	"/>
	<polygon fill="#FFFFFF" points="113.1,91.1 86.6,106.4 86.6,123.6 128.1,99.7 128.1,51.7 113.1,60.3 	"/>
	<path fill="#FFFFFF" d="M140.9,29.2C140.9,29.2,140.9,29.2,140.9,29.2c-0.2-0.6-0.5-1.2-0.8-1.7c-0.3-0.5-0.6-1-1-1.5
		c0,0,0,0,0-0.1c-1.3-1.6-2.8-2.9-4.6-3.8c-4-2.1-9-2.1-13.2,0.3c-2.2,1.3-4,3.1-5.1,5.2c-1,1.9-1.6,3.9-1.7,6l-8.8,5.1v0l-19,11
		l-7.5,4.3h0l-7.5,4.3l-7.5-4.3v0v0c0,0,0,0,0,0l-7.5-4.3l-19-11v0l-8.8-5.1c-0.1-2.1-0.7-4.2-1.7-6c-1.2-2.1-2.9-3.9-5.1-5.2
		c-4.2-2.4-9.2-2.4-13.2-0.3C7.1,23,5.5,24.3,4.3,26c-0.4,0.5-0.7,1-1,1.5c-0.3,0.5-0.6,1.1-0.8,1.7c0,0,0,0,0,0
		c-0.8,1.9-1.1,3.9-1,5.9c0,0,0,0,0,0c0.2,4.5,2.7,8.8,6.9,11.2c2.2,1.3,4.6,1.9,7,1.8c2.2,0,4.3-0.5,6.2-1.5h0l8.7,5l19.1,11
		l7.5,4.3l7.5,4.3v8.6v0v8.6v22.2v10c-1.8,1.2-3.4,2.8-4.5,4.7c-1.2,2-1.8,4.4-1.8,6.9c0,4.9,2.5,9.1,6.3,11.6
		c1.7,1.1,3.6,1.8,5.6,2.1c0.6,0.1,1.2,0.1,1.8,0.1c0.6,0,1.2,0,1.8-0.1c2.1-0.3,4-1,5.6-2.1c3.8-2.4,6.3-6.7,6.3-11.6
		c0-2.5-0.7-4.9-1.8-6.9c-1.1-1.9-2.6-3.5-4.5-4.7v-10V88.5v-8.6v-8.6l7.5-4.3l7.5-4.3l19.1-11l8.7-5h0c1.9,1,4,1.5,6.2,1.5
		c2.4,0,4.8-0.6,7-1.8c4.2-2.4,6.6-6.7,6.9-11.2c0,0,0,0,0,0C142,33.1,141.7,31.1,140.9,29.2z"/>
</g>
</svg>
